# xmcd
#
# Track frame offsets: 
#        150
#        4565
#        21305
#        38382
#        54860
#        73830
#        92745
#        110695
#        126827
#        140795
#        157562
#        175715
#        194737
#        212237
#        231120
#        251842
#
# Disc length: 3654 seconds
#
# Revision: 6
# Processed by: cddbd v1.5.2PL0 Copyright (c) Steve Scherf et al.
# Submitted via: ExactAudioCopy v0.99pb4
#
DISCID=d90e4410
DTITLE=Sneakers - Greatest [CD1)
DYEAR=1997
DGENRE=Rock
TTITLE0=Intro
TTITLE1=Tag Med Mig
TTITLE2=Sui-Sui
TTITLE3=Mens Vi Venter På I Morgen
TTITLE4=Skt. Peders Engle
TTITLE5=Forstads Casanova
TTITLE6=Woodoo
TTITLE7=Se Selv
TTITLE8=Bellevue
TTITLE9=Gaden
TTITLE10=Lev Og La Deux
TTITLE11=En Cool Agent
TTITLE12=Den Sidste Cafe
TTITLE13=Tornerose
TTITLE14=Johnny (På Havet)
TTITLE15=Efter Festen
EXTD=
EXTT0=
EXTT1=
EXTT2=
EXTT3=
EXTT4=
EXTT5=
EXTT6=
EXTT7=
EXTT8=
EXTT9=
EXTT10=
EXTT11=
EXTT12=
EXTT13=
EXTT14=
EXTT15=
PLAYORDER=
